<svg width="24" height="24" viewBox="0 0 24 24" fill="none" xmlns="http://www.w3.org/2000/svg">
<g clip-path="url(#clip0_61_36)">
<mask id="mask0_61_36" style="mask-type:luminance" maskUnits="userSpaceOnUse" x="0" y="0" width="24" height="24">
<path d="M24 0H0V24H24V0Z" fill="white"/>
</mask>
<g mask="url(#mask0_61_36)">
<path d="M6.87988 18.1501V16.0801" stroke="white" stroke-width="1.5" stroke-linecap="round"/>
<path d="M12 18.1498V14.0098" stroke="white" stroke-width="1.5" stroke-linecap="round"/>
<path d="M17.1201 18.1497V11.9297" stroke="white" stroke-width="1.5" stroke-linecap="round"/>
<path d="M17.1199 5.84961L16.6599 6.38961C14.1099 9.36961 10.6899 11.4796 6.87988 12.4296" stroke="white" stroke-width="1.5" stroke-linecap="round"/>
<path d="M14.1899 5.84961H17.1199V8.76961" stroke="white" stroke-width="1.5" stroke-linecap="round" stroke-linejoin="round"/>
<path d="M2 12.97V15C2 20 4 22 9 22H15C20 22 22 20 22 15V9C22 4 20 2 15 2H9C4 2 2 4 2 9" stroke="white" stroke-width="1.5" stroke-linecap="round" stroke-linejoin="round"/>
</g>
</g>
<defs>
<clipPath id="clip0_61_36">
<rect width="24" height="24" fill="white"/>
</clipPath>
</defs>
</svg>
